<mxfile host="Electron" modified="2024-03-22T13:48:23.215Z" agent="Mozilla/5.0 (Windows NT 10.0; Win64; x64) AppleWebKit/537.36 (KHTML, like Gecko) draw.io/24.0.4 Chrome/120.0.6099.109 Electron/28.1.0 Safari/537.36" etag="vTuCuzr9dQxfoLnXChNX" version="24.0.4" type="device">
  <diagram name="Page-1" id="nTQGUZQcPy84R1Rn9wm-">
    <mxGraphModel dx="1434" dy="844" grid="1" gridSize="10" guides="1" tooltips="1" connect="1" arrows="1" fold="1" page="1" pageScale="1" pageWidth="827" pageHeight="1169" math="0" shadow="0">
      <root>
        <mxCell id="0" />
        <mxCell id="1" parent="0" />
        <mxCell id="Lu9Eben1TwgA7Xt8Hn3x-1" value="LAN&lt;div&gt;192.168.1.0/26&lt;/div&gt;" style="rounded=0;whiteSpace=wrap;html=1;strokeColor=#0000FF;" vertex="1" parent="1">
          <mxGeometry x="120" y="310" width="260" height="360" as="geometry" />
        </mxCell>
        <mxCell id="Lu9Eben1TwgA7Xt8Hn3x-2" value="NAT&lt;div&gt;10.0.1.0/24&lt;/div&gt;" style="rounded=0;whiteSpace=wrap;html=1;strokeColor=#33FF33;" vertex="1" parent="1">
          <mxGeometry x="470" y="310" width="260" height="360" as="geometry" />
        </mxCell>
        <mxCell id="Lu9Eben1TwgA7Xt8Hn3x-3" value="DHCP Server&lt;div&gt;10.0.1.15/24&lt;/div&gt;" style="verticalLabelPosition=bottom;sketch=0;aspect=fixed;html=1;verticalAlign=top;strokeColor=none;align=center;outlineConnect=0;shape=mxgraph.citrix.dhcp_server;" vertex="1" parent="1">
          <mxGeometry x="490" y="430" width="76" height="90" as="geometry" />
        </mxCell>
        <mxCell id="Lu9Eben1TwgA7Xt8Hn3x-4" value="" style="endArrow=none;html=1;rounded=0;exitX=1;exitY=0.5;exitDx=0;exitDy=0;entryX=0;entryY=0.5;entryDx=0;entryDy=0;" edge="1" parent="1" source="Lu9Eben1TwgA7Xt8Hn3x-1" target="Lu9Eben1TwgA7Xt8Hn3x-2">
          <mxGeometry width="50" height="50" relative="1" as="geometry">
            <mxPoint x="390" y="460" as="sourcePoint" />
            <mxPoint x="440" y="410" as="targetPoint" />
          </mxGeometry>
        </mxCell>
        <mxCell id="Lu9Eben1TwgA7Xt8Hn3x-5" value="Windows Client&lt;br&gt;192.168.1.10/26" style="image;aspect=fixed;perimeter=ellipsePerimeter;html=1;align=center;shadow=0;dashed=0;spacingTop=3;image=img/lib/active_directory/laptop_client.svg;" vertex="1" parent="1">
          <mxGeometry x="230" y="550" width="45" height="50" as="geometry" />
        </mxCell>
      </root>
    </mxGraphModel>
  </diagram>
</mxfile>
